<?xml version="1.0" standalone="no"?><!DOCTYPE svg PUBLIC "-//W3C//DTD SVG 1.1//EN" "http://www.w3.org/Graphics/SVG/1.1/DTD/svg11.dtd"><svg t="1582939018627" class="icon" viewBox="0 0 1024 1024" version="1.1" xmlns="http://www.w3.org/2000/svg" p-id="7903" xmlns:xlink="http://www.w3.org/1999/xlink" width="200" height="200"><defs><style type="text/css"></style></defs><path d="M168 222.718l64.508 694.48L512.016 992l279.476-74.804L856 222.718H168z m549.196 224.048l-205.21 87.704h199.036l-22.828 260.958-176.208 51.066-175.426-52.054-11.324-131.526h86.794l5.662 68.128 93.54 23.618 0.784-0.24v0.15l0.24-0.06 97.064-27.18 6.656-109.226-296.402-0.21-6.596-83.484h0.03l208.704-87.674h-9.638v-0.03l-0.06 0.03H304.938l-10.39-83.604h430.84l-8.492 83.604h0.332l-0.032 0.03z m-1.084-326.062l-42.434-41.338h42.434V34.138h-106.19v45.23c14.214 14.128 21.624 20.864 42.162 41.308-11.986 0-42.162 0.06-42.162 0.06v41.248h106.19v-41.28z m-302.094 0h-60.654V79.366h60.654V34.138H307.86v127.844h106.158V120.704z m151.604 0l-42.434-41.338h42.434V34.138h-106.19v45.23c14.214 14.128 21.624 20.864 42.162 41.308-11.986 0-42.162 0.06-42.162 0.06v41.248h106.19v-41.28z" p-id="7904" fill="#2c2c2c"></path></svg>