<?xml version="1.0" standalone="no"?><!DOCTYPE svg PUBLIC "-//W3C//DTD SVG 1.1//EN" "http://www.w3.org/Graphics/SVG/1.1/DTD/svg11.dtd"><svg t="1582939084635" class="icon" viewBox="0 0 1024 1024" version="1.1" xmlns="http://www.w3.org/2000/svg" p-id="9417" xmlns:xlink="http://www.w3.org/1999/xlink" width="200" height="200"><defs><style type="text/css"></style></defs><path d="M168 219.498l62.604 695.258L511.576 992l281.73-77.334L856 219.498H168z m557.392 165.004l-3.944 43.234-1.73 19.168H390.162l7.89 87.34h313.866l-2.094 22.894-20.24 224.492-1.304 14.392-176.674 48.492-176.43-48.492-12.078-133.878h86.456l6.13 68.02 95.984 25.628 96.074-25.688 9.984-110.594H319.244l-23.214-257.842h431.396l-2.064 22.864 0.03-0.03z m67.792-267.156h-61.542V30.548h-43.758v129.642h105.33l-0.03-42.844z m-517.396-0.57h40.056v43.414h43.758V30.548h-43.758v42.814h-40.056V30.548h-43.758v129.642h43.758V116.776z m141.382 43.414h43.758V73.542h38.57V30.548H378.66v42.994h38.508v86.648z m144.294-64.236l30.134 46.088h0.758l30.104-46.088V160.22h43.576V30.578h-45.67l-28.04 45.548-28.07-45.548h-45.64V160.22h42.818l0.03-64.266z" p-id="9418" fill="#2c2c2c"></path></svg>
